<svg width="160" height="25" viewBox="0 0 160 25" fill="none" xmlns="http://www.w3.org/2000/svg">
<path d="M130.447 0.805578C130.314 0.621192 130.14 0.46983 129.939 0.363179C129.738 0.256528 129.516 0.197441 129.289 0.19048C129.067 0.177043 128.846 0.212186 128.64 0.293441C128.433 0.374697 128.247 0.500099 128.095 0.660849C127.799 1.00083 127.644 1.4407 127.66 1.89105V18.0645L114.924 0.98649C114.775 0.754 114.572 0.560497 114.333 0.422052C114.094 0.283608 113.825 0.204219 113.549 0.19048C113.317 0.194661 113.088 0.252303 112.881 0.358955C112.674 0.465607 112.494 0.618415 112.355 0.805578C112.06 1.14556 111.904 1.58543 111.921 2.03577V22.4064C111.891 22.8524 112.033 23.293 112.319 23.6366C112.472 23.7973 112.658 23.9227 112.864 24.004C113.07 24.0852 113.292 24.1204 113.513 24.107C113.729 24.1175 113.944 24.0809 114.144 23.9996C114.344 23.9184 114.524 23.7945 114.671 23.6366C114.967 23.2966 115.122 22.8567 115.105 22.4064V6.37765L127.878 23.4557C128.037 23.6586 128.24 23.8228 128.472 23.9356C128.704 24.0484 128.958 24.107 129.216 24.107C129.443 24.1209 129.67 24.0861 129.882 24.0049C130.095 23.9238 130.287 23.7982 130.447 23.6366C130.742 23.2966 130.898 22.8567 130.881 22.4064V2.03577C130.898 1.58543 130.742 1.14556 130.447 0.805578Z" fill="#292E39"/>
<path d="M102.116 0.190485C101.889 0.17658 101.662 0.211361 101.45 0.292491C101.238 0.373621 101.045 0.499221 100.886 0.660855C100.726 0.821839 100.601 1.01443 100.52 1.22627C100.439 1.43812 100.404 1.66455 100.415 1.89105V22.4064C100.404 22.6329 100.439 22.8593 100.52 23.0712C100.601 23.283 100.726 23.4756 100.886 23.6366C101.045 23.7982 101.238 23.9238 101.45 24.005C101.662 24.0861 101.889 24.1209 102.116 24.107C102.342 24.1186 102.569 24.0827 102.781 24.0017C102.992 23.9207 103.185 23.7963 103.346 23.6366C103.642 23.2966 103.797 22.8567 103.78 22.4064V2.03578C103.797 1.58544 103.642 1.14556 103.346 0.805584C103.198 0.619505 103.012 0.46802 102.799 0.36176C102.587 0.2555 102.353 0.19704 102.116 0.190485Z" fill="#292E39"/>
<path d="M70.7097 20.9953H60.6148V2.03578C60.6317 1.58544 60.4765 1.14556 60.1806 0.805584C60.0329 0.619505 59.8462 0.46802 59.6337 0.36176C59.4211 0.2555 59.1879 0.19704 58.9504 0.190485C58.7237 0.17658 58.4966 0.211361 58.2844 0.292491C58.0722 0.373621 57.8799 0.499221 57.7202 0.660855C57.5605 0.821839 57.4361 1.01443 57.3551 1.22627C57.2741 1.43812 57.2383 1.66455 57.2499 1.89105V22.3702C57.2463 22.5882 57.2897 22.8045 57.3771 23.0043C57.4645 23.2041 57.5939 23.3827 57.7564 23.528C58.0703 23.8194 58.4862 23.9754 58.9143 23.9622H70.7097C71.1204 23.9759 71.5211 23.8337 71.8313 23.5642C71.979 23.4263 72.0945 23.2575 72.1695 23.0699C72.2446 22.8823 72.2773 22.6805 72.2655 22.4788C72.2778 22.2716 72.2454 22.0642 72.1704 21.8707C72.0955 21.6772 71.9799 21.502 71.8313 21.3571C71.5157 21.1007 71.1156 20.9716 70.7097 20.9953Z" fill="#292E39"/>
<path d="M39.9909 19.5118C39.698 19.507 39.4071 19.5606 39.1352 19.6693C38.8632 19.7781 38.6156 19.9399 38.4068 20.1453C38.198 20.3508 38.0322 20.5957 37.919 20.8659C37.8058 21.136 37.7476 21.426 37.7476 21.7189C37.7476 22.3139 37.984 22.8845 38.4047 23.3052C38.8254 23.7259 39.3959 23.9622 39.9909 23.9622C40.5859 23.9622 41.1565 23.7259 41.5772 23.3052C41.9979 22.8845 42.2342 22.3139 42.2342 21.7189C42.2342 21.426 42.176 21.136 42.0628 20.8659C41.9496 20.5957 41.7838 20.3508 41.575 20.1453C41.3662 19.9399 41.1186 19.7781 40.8467 19.6693C40.5747 19.5606 40.2838 19.507 39.9909 19.5118Z" fill="#292E39"/>
<path d="M41.6553 1.42068C41.5164 1.07774 41.2598 0.795523 40.9317 0.624674C40.6236 0.446837 40.2742 0.353213 39.9186 0.353213C39.5629 0.353213 39.2135 0.446837 38.9054 0.624674C38.5845 0.804713 38.3305 1.08403 38.1818 1.42068L28.9192 21.8998C28.804 22.1109 28.7419 22.3469 28.7382 22.5873C28.7368 22.7982 28.7852 23.0064 28.8795 23.1951C28.9739 23.3837 29.1114 23.5474 29.281 23.6728C29.5454 23.9198 29.8846 24.0716 30.245 24.1044C30.6053 24.1372 30.9664 24.0489 31.271 23.8537C31.5481 23.6844 31.7636 23.4308 31.8861 23.13L39.8462 5.03891L47.8425 23.13C47.9702 23.4151 48.1789 23.6563 48.4427 23.8235C48.7065 23.9908 49.0136 24.0768 49.3259 24.0708C49.7503 24.0635 50.1592 23.9102 50.4838 23.6366C50.6541 23.5036 50.7916 23.3334 50.8856 23.1389C50.9797 22.9444 51.0279 22.731 51.0265 22.5149C51.0076 22.2999 50.9461 22.0909 50.8456 21.8998L41.6553 1.42068Z" fill="#292E39"/>
<path d="M148.586 19.5118C148.293 19.507 148.002 19.5606 147.73 19.6693C147.458 19.7781 147.211 19.9399 147.002 20.1453C146.793 20.3508 146.627 20.5957 146.514 20.8659C146.401 21.136 146.343 21.426 146.343 21.7189C146.343 22.3139 146.579 22.8845 147 23.3052C147.42 23.7259 147.991 23.9622 148.586 23.9622C149.181 23.9622 149.752 23.7259 150.172 23.3052C150.593 22.8845 150.829 22.3139 150.829 21.7189C150.829 21.426 150.771 21.136 150.658 20.8659C150.545 20.5957 150.379 20.3508 150.17 20.1453C149.961 19.9399 149.714 19.7781 149.442 19.6693C149.17 19.5606 148.879 19.507 148.586 19.5118Z" fill="#292E39"/>
<path d="M150.25 1.42068C150.112 1.07774 149.855 0.795523 149.527 0.624674C149.219 0.446837 148.869 0.353213 148.514 0.353213C148.158 0.353213 147.809 0.446837 147.501 0.624674C147.18 0.804713 146.926 1.08403 146.777 1.42068L137.514 21.8998C137.399 22.1109 137.337 22.3469 137.333 22.5873C137.332 22.7982 137.38 23.0064 137.475 23.1951C137.569 23.3837 137.707 23.5474 137.876 23.6728C138.141 23.9198 138.48 24.0716 138.84 24.1044C139.2 24.1372 139.561 24.0489 139.866 23.8537C140.143 23.6844 140.359 23.4308 140.481 23.13L148.441 5.03891L156.438 23.13C156.565 23.4151 156.774 23.6563 157.038 23.8235C157.302 23.9908 157.609 24.0768 157.921 24.0708C158.345 24.0635 158.754 23.9102 159.079 23.6366C159.249 23.5036 159.387 23.3334 159.481 23.1389C159.575 22.9444 159.623 22.731 159.622 22.5149C159.603 22.2999 159.541 22.0909 159.441 21.8998L150.25 1.42068Z" fill="#292E39"/>
<path d="M83.8241 4.95249C83.5312 4.9573 83.2403 4.90376 82.9684 4.79499C82.6964 4.68622 82.4488 4.52441 82.24 4.31898C82.0312 4.11355 81.8654 3.86861 81.7522 3.59845C81.639 3.32828 81.5808 3.03829 81.5808 2.74538C81.5808 2.15042 81.8172 1.57982 82.2379 1.15912C82.6586 0.738424 83.2292 0.502077 83.8241 0.502077C84.4191 0.502077 84.9897 0.738424 85.4104 1.15912C85.8311 1.57982 86.0674 2.15042 86.0674 2.74538C86.0675 3.03829 86.0092 3.32828 85.896 3.59845C85.7828 3.86861 85.617 4.11355 85.4082 4.31898C85.1994 4.52441 84.9518 4.68622 84.6799 4.79499C84.4079 4.90376 84.117 4.9573 83.8241 4.95249Z" fill="#292E39"/>
<path d="M85.4885 23.0436C85.3496 23.3866 85.0931 23.6688 84.7649 23.8396C84.4568 24.0175 84.1074 24.1111 83.7518 24.1111C83.3961 24.1111 83.0467 24.0175 82.7387 23.8396C82.4177 23.6596 82.1637 23.3803 82.015 23.0436L72.7524 2.56447C72.6372 2.35337 72.5751 2.11744 72.5714 1.87701C72.57 1.66612 72.6184 1.45787 72.7128 1.26924C72.8071 1.08061 72.9446 0.916933 73.1142 0.79154C73.3786 0.54454 73.7178 0.392666 74.0782 0.359905C74.4385 0.327145 74.7996 0.415362 75.1042 0.610628C75.3813 0.779933 75.5968 1.03354 75.7193 1.33427L83.6794 19.4254L91.6757 1.33427C91.8034 1.04923 92.0121 0.80806 92.2759 0.640785C92.5397 0.47351 92.8469 0.387524 93.1591 0.393534C93.5835 0.400793 93.9925 0.554137 94.317 0.827721C94.4873 0.960662 94.6248 1.13093 94.7189 1.3254C94.813 1.51986 94.8611 1.73334 94.8597 1.94937C94.8408 2.16437 94.7793 2.37346 94.6788 2.56447L85.4885 23.0436Z" fill="#292E39"/>
<path d="M21.9004 0.806128C21.7694 0.628229 21.6012 0.481036 21.4075 0.374805C21.2138 0.268573 20.9992 0.205858 20.7788 0.191029C20.4465 0.175075 20.1175 0.263649 19.8381 0.444305C19.5377 0.669457 19.3008 0.968652 19.1506 1.31268L11.3714 16.5454L3.48368 1.45741C3.38516 1.10574 3.1783 0.794085 2.89249 0.566737C2.60668 0.339389 2.25647 0.207924 1.89166 0.191029C1.65367 0.195069 1.41961 0.252425 1.20671 0.358874C0.993813 0.465323 0.807494 0.618157 0.661466 0.806128C0.501706 0.967112 0.377341 1.1597 0.296342 1.37154C0.215342 1.58339 0.179495 1.80982 0.191097 2.03632V22.4793C0.182586 22.6915 0.216616 22.9033 0.291183 23.1021C0.36575 23.3009 0.479346 23.4829 0.625284 23.6371C0.767396 23.8014 0.946415 23.9297 1.14767 24.0115C1.34892 24.0932 1.56669 24.1261 1.78312 24.1075C1.99927 24.1233 2.21615 24.0891 2.41694 24.0075C2.61773 23.9259 2.79704 23.7992 2.94095 23.6371C3.20976 23.3123 3.35123 22.9008 3.33895 22.4793V7.60839L9.70703 19.5847C9.84407 19.9069 10.0699 20.1834 10.3582 20.382C10.6465 20.5806 10.9854 20.6931 11.3352 20.7064C11.6873 20.7022 12.0302 20.5933 12.3202 20.3936C12.6102 20.1938 12.8341 19.9122 12.9634 19.5847L19.2953 7.42748V22.4793C19.2875 22.8942 19.4144 23.3005 19.6571 23.6371C19.8043 23.795 19.9841 23.919 20.1841 24.0002C20.3841 24.0814 20.5994 24.1181 20.815 24.1075C21.0182 24.1057 21.2189 24.0631 21.4054 23.9823C21.5918 23.9015 21.7602 23.7841 21.9004 23.6371C22.1693 23.3123 22.3107 22.9008 22.2985 22.4793V2.03632C22.3254 1.59078 22.1832 1.15147 21.9004 0.806128Z" fill="#292E39"/>
</svg>
