<svg width="20" height="11" viewBox="0 0 20 11" fill="none" xmlns="http://www.w3.org/2000/svg">
<path d="M18.7474 0.728788C18.8761 0.315151 18.7474 0 18.1338 0H16.1345C15.6199 0 15.3922 0.265909 15.2636 0.561364C15.2636 0.561364 14.2441 3.03333 12.7991 4.64849C12.3241 5.11136 12.1162 5.25909 11.8589 5.25909C11.7302 5.25909 11.5224 5.11136 11.5224 4.68788V0.728788C11.5224 0.226515 11.4036 0 10.978 0H7.82081C7.5041 0 7.31605 0.236363 7.31605 0.462879C7.31605 0.935606 8.05834 1.05379 8.10783 2.40303V5.33788C8.10783 5.98788 7.98906 6.10606 7.74163 6.10606C7.06862 6.10606 5.40587 3.61439 4.42604 0.77803C4.2281 0.226515 4.04005 0 3.52539 0H1.51624C0.952099 0 0.833332 0.265909 0.833332 0.561364C0.833332 1.09318 1.51624 3.71288 4.00046 7.17955C5.65331 9.55303 7.98906 10.8333 10.117 10.8333C11.3937 10.8333 11.5521 10.5477 11.5521 10.0553V8.26288C11.5521 7.70152 11.6709 7.58333 12.0766 7.58333C12.3736 7.58333 12.8783 7.73106 14.066 8.86364C15.4318 10.2227 15.6496 10.8333 16.4215 10.8333H18.4208C18.9948 10.8333 19.2819 10.5477 19.1235 9.98636C18.9453 9.425 18.2921 8.60758 17.4311 7.64243C16.9659 7.10076 16.2632 6.50985 16.0454 6.20455C15.7485 5.8303 15.8376 5.66288 16.0454 5.31818C16.0454 5.31818 18.4901 1.90076 18.7474 0.728788Z" fill="#787E90"/>
</svg>
