<svg width="32" height="32" viewBox="0 0 32 32" fill="none" xmlns="http://www.w3.org/2000/svg">
<path fill-rule="evenodd" clip-rule="evenodd" d="M0 16C0 7.16344 7.20542 0 16 0C24.7946 0 32 7.16344 32 16C32 24.8366 24.7946 32 16 32C7.20542 32 0 24.8366 0 16ZM18.1597 9.87431C18.1597 11.0525 17.2046 12.0076 16.0264 12.0076C14.8482 12.0076 13.8931 11.0525 13.8931 9.87431C13.8931 8.69611 14.8482 7.74098 16.0264 7.74098C17.2046 7.74098 18.1597 8.69611 18.1597 9.87431ZM12.2978 22.9168C13.1821 23.771 14.4151 24.1981 15.9969 24.1981C17.5787 24.1981 18.8118 23.771 19.696 22.9168C20.5803 22.0627 21.0224 20.8648 21.0224 19.3234V13.6534H17.6033V19.2203C17.6033 19.9763 17.4658 20.5261 17.1907 20.8697C16.9254 21.2134 16.5373 21.3852 16.0264 21.3852C15.5155 21.3852 15.1225 21.2134 14.8474 20.8697C14.5821 20.5261 14.4495 19.9763 14.4495 19.2203V13.6534H10.9715V19.3234C10.9715 20.8648 11.4136 22.0627 12.2978 22.9168Z" fill="#787E90"/>
</svg>
