<svg width="41" height="20" viewBox="0 0 41 20" fill="none" xmlns="http://www.w3.org/2000/svg">
<path d="M4.77342 2.9967C5.10732 3.10608 5.37214 3.2903 5.56787 3.54936C5.76361 3.80266 5.86148 4.11929 5.86148 4.49925C5.86148 5.02313 5.65998 5.42899 5.257 5.71684C4.85402 5.99893 4.26681 6.13997 3.49539 6.13997H0.490281V0.0952148H3.32268C4.03654 0.0952148 4.58632 0.236259 4.97203 0.518348C5.35775 0.794679 5.5506 1.17751 5.5506 1.66685C5.5506 1.96621 5.48152 2.23103 5.34335 2.4613C5.20519 2.69158 5.01521 2.87004 4.77342 2.9967ZM1.61288 0.976022V2.64265H3.20178C3.59325 2.64265 3.89261 2.57356 4.09986 2.4354C4.31287 2.29148 4.41937 2.08423 4.41937 1.81365C4.41937 1.53732 4.31287 1.33007 4.09986 1.19191C3.89261 1.04798 3.59325 0.976022 3.20178 0.976022H1.61288ZM3.4263 5.25916C4.2956 5.25916 4.73024 4.96844 4.73024 4.38699C4.73024 3.80554 4.2956 3.51482 3.4263 3.51482H1.61288V5.25916H3.4263Z" fill="#DB0A5B"/>
<path d="M11.2909 3.86023C11.2909 3.93507 11.2851 4.04158 11.2736 4.17974H7.65541C7.71873 4.5194 7.8828 4.78997 8.14762 4.99147C8.4182 5.1872 8.7521 5.28507 9.14932 5.28507C9.65593 5.28507 10.0733 5.11812 10.4015 4.78422L10.98 5.44914C10.7728 5.69669 10.5108 5.88379 10.1942 6.01044C9.87757 6.13709 9.52064 6.20042 9.12342 6.20042C8.61681 6.20042 8.17065 6.09967 7.78494 5.89818C7.39922 5.69669 7.09986 5.41748 6.88686 5.06055C6.67961 4.69786 6.57599 4.28912 6.57599 3.83433C6.57599 3.38529 6.67673 2.9823 6.87822 2.62538C7.08547 2.26269 7.37044 1.9806 7.73312 1.77911C8.09581 1.57762 8.50455 1.47687 8.95935 1.47687C9.40838 1.47687 9.80849 1.57762 10.1597 1.77911C10.5166 1.97485 10.7929 2.25406 10.9887 2.61674C11.1901 2.97367 11.2909 3.38817 11.2909 3.86023ZM8.95935 2.34041C8.61393 2.34041 8.32033 2.44403 8.07854 2.65128C7.84251 2.85277 7.69858 3.12335 7.64677 3.46301H10.2633C10.2172 3.12911 10.0762 2.85853 9.84015 2.65128C9.60412 2.44403 9.31052 2.34041 8.95935 2.34041Z" fill="#DB0A5B"/>
<path d="M13.9629 1.47687C14.6422 1.47687 15.1603 1.64095 15.5172 1.96909C15.8799 2.29148 16.0613 2.78081 16.0613 3.4371V6.13997H15.0423V5.57867C14.9099 5.78016 14.7199 5.9356 14.4724 6.04498C14.2306 6.14861 13.937 6.20042 13.5915 6.20042C13.2461 6.20042 12.9439 6.14285 12.6848 6.02771C12.4258 5.90681 12.2243 5.74274 12.0804 5.53549C11.9422 5.32249 11.8731 5.08358 11.8731 4.81876C11.8731 4.40426 12.0257 4.07324 12.3308 3.82569C12.6417 3.57239 13.1281 3.44574 13.7902 3.44574H14.9818V3.37665C14.9818 3.05427 14.884 2.80672 14.6882 2.63401C14.4983 2.4613 14.2133 2.37495 13.8333 2.37495C13.5743 2.37495 13.3181 2.41525 13.0648 2.49585C12.8172 2.57644 12.6071 2.6887 12.4344 2.83263L12.0113 2.04681C12.2531 1.86259 12.5438 1.72154 12.8834 1.62367C13.2231 1.52581 13.5829 1.47687 13.9629 1.47687ZM13.8161 5.4146C14.0866 5.4146 14.3255 5.35415 14.5328 5.23326C14.7458 5.1066 14.8955 4.92814 14.9818 4.69786V4.16247H13.8679C13.2461 4.16247 12.9353 4.36684 12.9353 4.77558C12.9353 4.97132 13.013 5.12675 13.1684 5.24189C13.3238 5.35703 13.5397 5.4146 13.8161 5.4146Z" fill="#DB0A5B"/>
<path d="M21.911 1.52869V6.13997H20.8834V5.55276C20.7107 5.76001 20.4948 5.92121 20.2358 6.03635C19.9767 6.14573 19.6975 6.20042 19.3981 6.20042C18.7822 6.20042 18.2957 6.03059 17.9388 5.69093C17.5876 5.34552 17.412 4.83603 17.412 4.16247V1.52869H18.4914V4.01567C18.4914 4.43017 18.5835 4.74104 18.7678 4.94829C18.9577 5.14978 19.2254 5.25053 19.5709 5.25053C19.9566 5.25053 20.2617 5.13251 20.4862 4.89648C20.7165 4.65469 20.8316 4.30927 20.8316 3.86023V1.52869H21.911Z" fill="#DB0A5B"/>
<path d="M26.0963 5.88954C25.9696 5.99317 25.8142 6.07089 25.63 6.1227C25.4515 6.17451 25.2615 6.20042 25.06 6.20042C24.5534 6.20042 24.162 6.06801 23.8856 5.80319C23.6093 5.53837 23.4711 5.15266 23.4711 4.64605V2.42676H22.7112V1.56323H23.4711V0.509713H24.5506V1.56323H25.7854V2.42676H24.5506V4.62015C24.5506 4.84466 24.6053 5.01737 24.7146 5.13827C24.824 5.25341 24.9823 5.31097 25.1896 5.31097C25.4314 5.31097 25.6329 5.24765 25.7941 5.121L26.0963 5.88954Z" fill="#DB0A5B"/>
<path d="M31.2176 1.52869L29.0588 6.51129C28.8573 7.01214 28.6126 7.36331 28.3248 7.5648C28.0369 7.77205 27.6886 7.87568 27.2799 7.87568C27.0496 7.87568 26.8222 7.83826 26.5977 7.76342C26.3732 7.68858 26.1889 7.58495 26.045 7.45254L26.4768 6.65809C26.5804 6.75596 26.7013 6.83368 26.8395 6.89125C26.9834 6.94881 27.1273 6.9776 27.2712 6.9776C27.4612 6.9776 27.6167 6.92867 27.7376 6.8308C27.8642 6.73293 27.9793 6.56886 28.083 6.33858L28.1607 6.15724L26.1486 1.52869H27.2712L28.722 4.93965L30.1814 1.52869H31.2176Z" fill="#DB0A5B"/>
<path d="M9.07149 18.2899C8.60518 18.2899 8.18493 18.1892 7.81073 17.9877C7.43653 17.7862 7.14293 17.507 6.92992 17.1501C6.72267 16.7874 6.61905 16.3786 6.61905 15.9238C6.61905 15.469 6.72267 15.0632 6.92992 14.7063C7.14293 14.3493 7.43653 14.0701 7.81073 13.8686C8.18493 13.6671 8.60518 13.5664 9.07149 13.5664C9.54356 13.5664 9.96669 13.6671 10.3409 13.8686C10.7151 14.0701 11.0058 14.3493 11.2131 14.7063C11.4261 15.0632 11.5326 15.469 11.5326 15.9238C11.5326 16.3786 11.4261 16.7874 11.2131 17.1501C11.0058 17.507 10.7151 17.7862 10.3409 17.9877C9.96669 18.1892 9.54356 18.2899 9.07149 18.2899ZM9.07149 17.3659C9.46872 17.3659 9.79686 17.2335 10.0559 16.9687C10.315 16.7039 10.4445 16.3556 10.4445 15.9238C10.4445 15.4921 10.315 15.1438 10.0559 14.879C9.79686 14.6141 9.46872 14.4817 9.07149 14.4817C8.67426 14.4817 8.34612 14.6141 8.08706 14.879C7.83375 15.1438 7.7071 15.4921 7.7071 15.9238C7.7071 16.3556 7.83375 16.7039 8.08706 16.9687C8.34612 17.2335 8.67426 17.3659 9.07149 17.3659Z" fill="#DB0A5B"/>
<path d="M17.0292 13.6182V18.2295H16.0016V17.6423C15.8289 17.8495 15.613 18.0107 15.354 18.1259C15.0949 18.2352 14.8157 18.2899 14.5164 18.2899C13.9004 18.2899 13.4139 18.1201 13.057 17.7804C12.7058 17.435 12.5302 16.9255 12.5302 16.252V13.6182H13.6096V16.1052C13.6096 16.5197 13.7018 16.8305 13.886 17.0378C14.076 17.2393 14.3436 17.34 14.6891 17.34C15.0748 17.34 15.3799 17.222 15.6044 16.986C15.8347 16.7442 15.9498 16.3988 15.9498 15.9497V13.6182H17.0292Z" fill="#DB0A5B"/>
<path d="M21.2145 17.9791C21.0878 18.0827 20.9324 18.1604 20.7482 18.2122C20.5697 18.264 20.3797 18.2899 20.1783 18.2899C19.6716 18.2899 19.2802 18.1575 19.0038 17.8927C18.7275 17.6279 18.5893 17.2422 18.5893 16.7356V14.5163H17.8294V13.6527H18.5893V12.5992H19.6688V13.6527H20.9036V14.5163H19.6688V16.7097C19.6688 16.9342 19.7235 17.1069 19.8328 17.2278C19.9422 17.3429 20.1005 17.4005 20.3078 17.4005C20.5496 17.4005 20.7511 17.3372 20.9123 17.2105L21.2145 17.9791Z" fill="#DB0A5B"/>
<path d="M22.1025 13.6182H23.1819V18.2295H22.1025V13.6182ZM22.6465 12.8583C22.4507 12.8583 22.2867 12.7978 22.1543 12.6769C22.0219 12.5503 21.9557 12.3949 21.9557 12.2106C21.9557 12.0264 22.0219 11.8739 22.1543 11.753C22.2867 11.6263 22.4507 11.563 22.6465 11.563C22.8422 11.563 23.0063 11.6234 23.1387 11.7443C23.2711 11.8595 23.3373 12.0063 23.3373 12.1847C23.3373 12.3747 23.2711 12.5359 23.1387 12.6683C23.012 12.795 22.848 12.8583 22.6465 12.8583Z" fill="#DB0A5B"/>
<path d="M29.1063 13.6182V19.9047H28.0269V17.6682C27.6642 18.0827 27.172 18.2899 26.5502 18.2899C26.1012 18.2899 25.6982 18.1921 25.3413 17.9963C24.9901 17.8006 24.7138 17.5243 24.5123 17.1673C24.3165 16.8104 24.2187 16.3959 24.2187 15.9238C24.2187 15.4575 24.3194 15.0459 24.5209 14.689C24.7224 14.3321 24.9987 14.0557 25.3499 13.86C25.7011 13.6642 26.1012 13.5664 26.5502 13.5664C26.8668 13.5664 27.1547 13.6211 27.4137 13.7305C27.6786 13.8398 27.9002 14.0039 28.0787 14.2227V13.6182H29.1063ZM26.6711 17.3659C27.0683 17.3659 27.3965 17.2335 27.6555 16.9687C27.9146 16.7039 28.0441 16.3556 28.0441 15.9238C28.0441 15.4921 27.9146 15.1438 27.6555 14.879C27.3965 14.6141 27.0683 14.4817 26.6711 14.4817C26.2739 14.4817 25.9457 14.6141 25.6867 14.879C25.4334 15.1438 25.3067 15.4921 25.3067 15.9238C25.3067 16.3556 25.4334 16.7039 25.6867 16.9687C25.9457 17.2335 26.2739 17.3659 26.6711 17.3659Z" fill="#DB0A5B"/>
<path d="M34.983 13.6182V18.2295H33.9554V17.6423C33.7827 17.8495 33.5668 18.0107 33.3078 18.1259C33.0487 18.2352 32.7695 18.2899 32.4702 18.2899C31.8542 18.2899 31.3677 18.1201 31.0108 17.7804C30.6596 17.435 30.484 16.9255 30.484 16.252V13.6182H31.5634V16.1052C31.5634 16.5197 31.6555 16.8305 31.8398 17.0378C32.0297 17.2393 32.2974 17.34 32.6429 17.34C33.0286 17.34 33.3337 17.222 33.5582 16.986C33.7885 16.7442 33.9036 16.3988 33.9036 15.9497V13.6182H34.983Z" fill="#DB0A5B"/>
<path d="M40.7313 15.9497C40.7313 16.0246 40.7255 16.1311 40.714 16.2693H37.0958C37.1591 16.6089 37.3232 16.8795 37.588 17.081C37.8586 17.2767 38.1925 17.3746 38.5897 17.3746C39.0963 17.3746 39.5137 17.2076 39.8419 16.8737L40.4204 17.5387C40.2132 17.7862 39.9512 17.9733 39.6346 18.0999C39.318 18.2266 38.961 18.2899 38.5638 18.2899C38.0572 18.2899 37.611 18.1892 37.2253 17.9877C36.8396 17.7862 36.5403 17.507 36.3273 17.1501C36.12 16.7874 36.0164 16.3786 36.0164 15.9238C36.0164 15.4748 36.1171 15.0718 36.3186 14.7149C36.5259 14.3522 36.8108 14.0701 37.1735 13.8686C37.5362 13.6671 37.945 13.5664 38.3997 13.5664C38.8488 13.5664 39.2489 13.6671 39.6001 13.8686C39.957 14.0644 40.2333 14.3436 40.4291 14.7063C40.6306 15.0632 40.7313 15.4777 40.7313 15.9497ZM38.3997 14.4299C38.0543 14.4299 37.7607 14.5335 37.5189 14.7408C37.2829 14.9423 37.139 15.2129 37.0872 15.5525H39.7037C39.6576 15.2186 39.5166 14.948 39.2806 14.7408C39.0445 14.5335 38.7509 14.4299 38.3997 14.4299Z" fill="#DB0A5B"/>
<path d="M4.76908 15.0862C5.10298 15.1956 5.3678 15.3798 5.56353 15.6389C5.75927 15.8922 5.85713 16.2088 5.85713 16.5888C5.85713 17.1126 5.65564 17.5185 5.25266 17.8063C4.84967 18.0884 4.26247 18.2295 3.49104 18.2295H0.485938V12.1847H3.31834C4.03219 12.1847 4.58198 12.3258 4.96769 12.6079C5.3534 12.8842 5.54626 13.267 5.54626 13.7564C5.54626 14.0557 5.47718 14.3205 5.33901 14.5508C5.20085 14.7811 5.01087 14.9596 4.76908 15.0862ZM1.60853 13.0655V14.7322H3.19744C3.58891 14.7322 3.88827 14.6631 4.09552 14.5249C4.30853 14.381 4.41503 14.1737 4.41503 13.9032C4.41503 13.6268 4.30853 13.4196 4.09552 13.2814C3.88827 13.1375 3.58891 13.0655 3.19744 13.0655H1.60853ZM3.42196 17.3487C4.29125 17.3487 4.7259 17.0579 4.7259 16.4765C4.7259 15.8951 4.29125 15.6043 3.42196 15.6043H1.60853V17.3487H3.42196Z" fill="#DB0A5B"/>
</svg>
