<svg width="20" height="21" viewBox="0 0 20 21" fill="none" xmlns="http://www.w3.org/2000/svg">
<path d="M17.8417 10.2128L10.3417 2.71283C10.0417 2.41283 9.62499 2.22949 9.16666 2.22949H3.33332C2.41666 2.22949 1.66666 2.97949 1.66666 3.89616V9.72949C1.66666 10.1878 1.84999 10.6045 2.15832 10.9128L9.65832 18.4128C9.95832 18.7128 10.375 18.8962 10.8333 18.8962C11.2917 18.8962 11.7083 18.7128 12.0083 18.4045L17.8417 12.5712C18.15 12.2712 18.3333 11.8545 18.3333 11.3962C18.3333 10.9378 18.1417 10.5128 17.8417 10.2128ZM10.8333 17.2378L3.33332 9.72949V3.89616H9.16666V3.88783L16.6667 11.3878L10.8333 17.2378V17.2378Z" fill="#DB0A5B"/>
<path d="M5.41666 7.22949C6.10701 7.22949 6.66666 6.66985 6.66666 5.97949C6.66666 5.28914 6.10701 4.72949 5.41666 4.72949C4.7263 4.72949 4.16666 5.28914 4.16666 5.97949C4.16666 6.66985 4.7263 7.22949 5.41666 7.22949Z" fill="#DB0A5B"/>
<path d="M7.41669 11.0211C7.41669 11.4961 7.60835 11.9127 7.91669 12.2294L10.8334 15.1461L13.75 12.2294C14.0584 11.9211 14.25 11.4877 14.25 11.0211C14.25 10.0794 13.4834 9.31274 12.5417 9.31274C12.0667 9.31274 11.6417 9.50441 11.3334 9.81274L10.8334 10.3127L10.3334 9.82108C10.025 9.50441 9.59169 9.31274 9.12502 9.31274C8.18335 9.31274 7.41669 10.0794 7.41669 11.0211V11.0211Z" fill="#DB0A5B"/>
</svg>
