<svg width="20" height="18" viewBox="0 0 20 18" fill="none" xmlns="http://www.w3.org/2000/svg">
<path d="M15 13.9902C13.65 13.9902 12.8 14.4102 12.05 14.7902C11.4 15.1202 10.87 15.3902 10 15.3902C9.1 15.3902 8.6 15.1402 7.95 14.7902C7.2 14.4102 6.38 13.9902 5 13.9902C3.62 13.9902 2.8 14.4102 2.05 14.7902C1.4 15.1202 0.88 15.3902 0 15.3902V17.3402C1.35 17.3402 2.2 16.9202 2.95 16.5402C3.6 16.2102 4.12 15.9402 5 15.9402C5.88 15.9402 6.4 16.1902 7.05 16.5402C7.8 16.9202 8.62 17.3402 10 17.3402C11.38 17.3402 12.2 16.9202 12.95 16.5402C13.6 16.2102 14.13 15.9402 15 15.9402C15.9 15.9402 16.4 16.1902 17.05 16.5402C17.8 16.9202 18.63 17.3402 20 17.3402V15.3902C19.1 15.3902 18.6 15.1402 17.95 14.7902C17.2 14.4102 16.35 13.9902 15 13.9902ZM15 9.54016C13.65 9.54016 12.8 9.97016 12.05 10.3402C11.4 10.6602 10.87 10.9402 10 10.9402C9.1 10.9402 8.6 10.6902 7.95 10.3402C7.2 9.96016 6.38 9.54016 5 9.54016C3.62 9.54016 2.8 9.97016 2.05 10.3402C1.4 10.6602 0.88 10.9402 0 10.9402V12.8902C1.35 12.8902 2.2 12.4602 2.95 12.0902C3.6 11.7402 4.1 11.4902 5 11.4902C5.9 11.4902 6.4 11.7402 7.05 12.0902C7.8 12.4702 8.62 12.8902 10 12.8902C11.38 12.8902 12.2 12.4602 12.95 12.0902C13.6 11.7402 14.1 11.4902 15 11.4902C15.9 11.4902 16.4 11.7402 17.05 12.0902C17.8 12.4702 18.63 12.8902 20 12.8902V10.9402C19.1 10.9402 18.6 10.6902 17.95 10.3402C17.2 9.96016 16.35 9.54016 15 9.54016ZM17.95 1.46016C17.2 1.08016 16.37 0.660156 15 0.660156C13.63 0.660156 12.8 1.08016 12.05 1.46016C11.4 1.78016 10.87 2.06016 10 2.06016C9.1 2.06016 8.6 1.81016 7.95 1.46016C7.2 1.09016 6.38 0.660156 5 0.660156C3.62 0.660156 2.8 1.08016 2.05 1.46016C1.4 1.79016 0.88 2.06016 0 2.06016V3.99016C1.35 3.99016 2.2 3.56016 2.95 3.19016C3.6 2.86016 4.12 2.59016 5 2.59016C5.88 2.59016 6.4 2.84016 7.05 3.19016C7.8 3.57016 8.62 3.99016 10 3.99016C11.38 3.99016 12.2 3.56016 12.95 3.19016C13.6 2.87016 14.13 2.59016 15 2.59016C15.9 2.59016 16.4 2.84016 17.05 3.19016C17.8 3.57016 18.63 3.99016 20 3.99016V2.04016C19.1 2.04016 18.6 1.79016 17.95 1.46016ZM15 5.09016C13.65 5.09016 12.8 5.52016 12.05 5.89016C11.4 6.24016 10.9 6.49016 10 6.49016C9.1 6.49016 8.6 6.24016 7.95 5.89016C7.2 5.51016 6.38 5.09016 5 5.09016C3.62 5.09016 2.8 5.52016 2.05 5.89016C1.4 6.24016 0.9 6.49016 0 6.49016V8.44016C1.35 8.44016 2.2 8.01016 2.95 7.64016C3.6 7.32016 4.13 7.04016 5 7.04016C5.87 7.04016 6.4 7.29016 7.05 7.64016C7.8 8.02016 8.62 8.44016 10 8.44016C11.38 8.44016 12.2 8.01016 12.95 7.64016C13.6 7.32016 14.13 7.04016 15 7.04016C15.9 7.04016 16.4 7.29016 17.05 7.64016C17.8 8.02016 18.63 8.44016 20 8.44016V6.49016C19.1 6.49016 18.6 6.24016 17.95 5.89016C17.2 5.51016 16.35 5.09016 15 5.09016Z" fill="#DB0A5B"/>
</svg>
