<svg width="19" height="21" viewBox="0 0 19 21" fill="none" xmlns="http://www.w3.org/2000/svg">
<path d="M12.07 0.00976562H6.07001V2.00977H12.07V0.00976562ZM8.07001 13.0098H10.07V7.00977H8.07001V13.0098ZM16.1 6.38977L17.52 4.96977C17.09 4.45977 16.62 3.97977 16.11 3.55977L14.69 4.97977C13.14 3.73977 11.19 2.99977 9.07001 2.99977C4.10001 2.99977 0.0700073 7.02977 0.0700073 11.9998C0.0700073 16.9698 4.09001 20.9998 9.07001 20.9998C14.05 20.9998 18.07 16.9698 18.07 11.9998C18.07 9.88977 17.33 7.93977 16.1 6.38977ZM9.07001 19.0098C5.20001 19.0098 2.07001 15.8798 2.07001 12.0098C2.07001 8.13977 5.20001 5.00977 9.07001 5.00977C12.94 5.00977 16.07 8.13977 16.07 12.0098C16.07 15.8798 12.94 19.0098 9.07001 19.0098Z" fill="#DB0A5B"/>
</svg>
