<svg width="162" height="304" viewBox="0 0 162 304" fill="none" xmlns="http://www.w3.org/2000/svg">
<g filter="url(#filter0_f)">
<path d="M21.22 139.254C22.5819 140.661 24.2088 141.784 26.0059 142.559C27.803 143.333 29.7343 143.742 31.6874 143.763C33.6404 143.784 35.5761 143.416 37.3816 142.681C39.187 141.945 40.8261 140.857 42.2034 139.479C45.0012 136.681 46.5672 132.881 46.5569 128.914C46.5466 124.947 44.9608 121.138 42.1484 118.326C39.3359 115.513 35.5273 113.927 31.5602 113.917C27.5932 113.907 23.7927 115.473 20.9948 118.271C19.6172 119.648 18.5289 121.287 17.7935 123.092C17.058 124.898 16.69 126.834 16.7109 128.787C16.7319 130.74 17.1414 132.671 17.9155 134.468C18.6897 136.265 19.813 137.892 21.22 139.254Z" fill="#DB0A5B"/>
<path d="M-71.7224 216.461C-72.6785 218.73 -72.7929 221.27 -72.0449 223.625C-71.4252 225.917 -70.2137 228.009 -68.5324 229.691C-66.8511 231.372 -64.7592 232.583 -62.4669 233.203C-60.1028 233.874 -57.589 233.761 -55.3028 232.88L84.787 180.361C86.324 179.913 87.7269 179.097 88.875 177.984C89.8735 176.999 90.6239 175.791 91.0651 174.458C91.5063 173.125 91.6259 171.705 91.414 170.314C91.3255 167.902 90.4363 165.585 88.8868 163.727C87.3374 161.869 85.216 160.578 82.8577 160.056C80.7517 159.542 78.5402 159.716 76.5471 160.551L-46.1556 207.998L1.11991 85.1241C1.85657 83.1799 2.00393 81.059 1.54364 79.0255C1.08335 76.992 0.0357525 75.1357 -1.46873 73.6877C-3.50902 71.7157 -6.1631 70.5038 -8.98369 70.2563C-10.4138 70.0765 -11.8644 70.2273 -13.2238 70.697C-14.5831 71.1667 -15.8148 71.9427 -16.8239 72.9654C-17.7454 74.066 -18.4379 75.3399 -18.8613 76.7131L-71.7224 216.461Z" fill="#DB0A5B"/>
</g>
<defs>
<filter id="filter0_f" x="-142.533" y="0.182617" width="304.049" height="303.452" filterUnits="userSpaceOnUse" color-interpolation-filters="sRGB">
<feFlood flood-opacity="0" result="BackgroundImageFix"/>
<feBlend mode="normal" in="SourceGraphic" in2="BackgroundImageFix" result="shape"/>
<feGaussianBlur stdDeviation="35" result="effect1_foregroundBlur"/>
</filter>
</defs>
</svg>
