<svg width="146" height="307" viewBox="0 0 146 307" fill="none" xmlns="http://www.w3.org/2000/svg">
<g filter="url(#filter0_f)">
<path d="M143.894 140.616C142.476 142.049 140.783 143.193 138.912 143.981C137.041 144.77 135.03 145.187 132.997 145.208C130.963 145.229 128.948 144.855 127.069 144.106C125.189 143.357 123.482 142.248 122.049 140.845C119.136 137.996 117.505 134.126 117.516 130.086C117.527 126.046 119.178 122.168 122.106 119.304C125.034 116.44 128.999 114.825 133.129 114.814C137.259 114.804 141.216 116.399 144.129 119.248C145.563 120.65 146.696 122.319 147.462 124.158C148.227 125.997 148.61 127.968 148.589 129.957C148.567 131.946 148.141 133.912 147.335 135.742C146.529 137.573 145.359 139.229 143.894 140.616Z" fill="#DB0A5B"/>
<path d="M240.656 219.24C241.652 221.551 241.771 224.137 240.992 226.535C240.347 228.87 239.086 231 237.335 232.712C235.585 234.424 233.407 235.658 231.02 236.289C228.559 236.972 225.942 236.857 223.562 235.96L77.7149 182.478C76.1148 182.021 74.6542 181.19 73.4589 180.056C72.4194 179.053 71.6381 177.823 71.1788 176.466C70.7195 175.108 70.595 173.662 70.8156 172.246C70.9078 169.79 71.8335 167.43 73.4466 165.538C75.0597 163.647 77.2683 162.331 79.7235 161.8C81.916 161.277 84.2185 161.453 86.2935 162.304L214.039 210.621L164.82 85.493C164.053 83.5132 163.9 81.3533 164.379 79.2825C164.858 77.2117 165.949 75.3213 167.515 73.8468C169.64 71.8386 172.403 70.6045 175.339 70.3524C176.828 70.1693 178.338 70.3228 179.754 70.8011C181.169 71.2794 182.451 72.0698 183.502 73.1112C184.461 74.232 185.182 75.5293 185.623 76.9277L240.656 219.24Z" fill="#DB0A5B"/>
</g>
<defs>
<filter id="filter0_f" x="0.709473" y="0.277344" width="310.791" height="306.451" filterUnits="userSpaceOnUse" color-interpolation-filters="sRGB">
<feFlood flood-opacity="0" result="BackgroundImageFix"/>
<feBlend mode="normal" in="SourceGraphic" in2="BackgroundImageFix" result="shape"/>
<feGaussianBlur stdDeviation="35" result="effect1_foregroundBlur"/>
</filter>
</defs>
</svg>
